<svg
    xmlns="http://www.w3.org/2000/svg"
    viewBox="0 0 100 100"
    id="vector">
    <path
        id="path"
        d="M 92.104 20.463 C 64.035 26.349 35.966 26.349 7.897 20.463 C 7.897 20.463 19.893 50 7.897 79.538 C 35.815 73.846 63.888 74.05 92.104 79.538 C 80.108 50.001 92.104 20.463 92.104 20.463 Z"
        fill="#ededed"/>
    <path
        id="path_1"
        d="M 87.818 24.242 C 87.887 24.165 87.956 24.094 88.024 24.016 C 88.024 24.016 76.624 31.312 69.343 31.62 C 69.343 31.62 76.281 32.909 83.369 28.145 C 79.618 32.586 79.648 37.844 79.648 37.844 C 80.862 32.913 83.607 28.815 85.071 26.878 C 85.18 26.789 85.289 26.698 85.398 26.605 C 82.58 30.999 84.07 37.929 84.07 37.929 C 84.375 30.835 85.424 27.415 86.337 25.767 C 86.833 25.299 87.324 24.792 87.81 24.249 C 87.815 24.246 87.82 24.242 87.825 24.239 C 87.825 24.239 87.822 24.239 87.818 24.24 Z"
        fill="#dbd8dd"/>
    <path
        id="path_2"
        d="M 12.96 24.242 C 12.891 24.165 12.822 24.094 12.754 24.016 C 12.754 24.016 24.154 31.312 31.435 31.62 C 31.435 31.62 24.497 32.909 17.409 28.145 C 21.16 32.586 21.13 37.844 21.13 37.844 C 19.916 32.913 17.171 28.815 15.707 26.878 C 15.598 26.789 15.489 26.698 15.38 26.605 C 18.198 30.999 16.708 37.929 16.708 37.929 C 16.403 30.835 15.354 27.415 14.441 25.767 C 13.945 25.299 13.454 24.792 12.968 24.249 C 12.963 24.246 12.958 24.242 12.953 24.239 C 12.953 24.239 12.956 24.239 12.96 24.24 Z"
        fill="#dbd8dd"/>
    <path
        id="path_3"
        d="M 87.818 75.085 C 87.887 75.162 87.956 75.233 88.024 75.311 C 88.024 75.311 76.624 68.015 69.343 67.707 C 69.343 67.707 76.281 66.418 83.369 71.182 C 79.618 66.741 79.648 61.483 79.648 61.483 C 80.862 66.414 83.607 70.513 85.071 72.449 C 85.18 72.538 85.289 72.629 85.398 72.722 C 82.58 68.328 84.07 61.398 84.07 61.398 C 84.375 68.492 85.424 71.912 86.337 73.56 C 86.833 74.028 87.324 74.535 87.81 75.078 C 87.815 75.081 87.82 75.085 87.825 75.088 C 87.825 75.088 87.822 75.088 87.818 75.087 Z"
        fill="#dbd8dd"/>
    <path
        id="path_4"
        d="M 12.96 75.085 C 12.891 75.162 12.822 75.233 12.754 75.311 C 12.754 75.311 24.154 68.015 31.435 67.707 C 31.435 67.707 24.497 66.418 17.409 71.182 C 21.16 66.741 21.13 61.483 21.13 61.483 C 19.916 66.414 17.171 70.513 15.707 72.449 C 15.598 72.538 15.489 72.629 15.38 72.722 C 18.198 68.328 16.708 61.398 16.708 61.398 C 16.403 68.492 15.354 71.912 14.441 73.56 C 13.945 74.028 13.454 74.535 12.968 75.078 C 12.963 75.081 12.958 75.085 12.953 75.088 C 12.953 75.088 12.956 75.088 12.96 75.087 Z"
        fill="#dbd8dd"/>
    <path
        id="path_5"
        d="M 86.866 23.219 C 85.946 23.219 85.2 23.965 85.2 24.886 C 85.2 25.806 85.946 26.552 86.866 26.552 C 87.786 26.552 88.532 25.806 88.532 24.886 C 88.532 23.966 87.786 23.219 86.866 23.219 Z"
        fill="#b1b2b6"/>
    <path
        id="path_6"
        d="M 13.672 23.219 C 12.752 23.219 12.006 23.965 12.006 24.886 C 12.006 25.806 12.752 26.552 13.672 26.552 C 14.592 26.552 15.338 25.806 15.338 24.886 C 15.338 23.966 14.592 23.219 13.672 23.219 Z"
        fill="#b1b2b6"/>
    <path
        id="path_7"
        d="M 86.866 72.897 C 85.946 72.897 85.2 73.643 85.2 74.564 C 85.2 75.485 85.946 76.23 86.866 76.23 C 87.786 76.23 88.532 75.484 88.532 74.564 C 88.532 73.644 87.786 72.897 86.866 72.897 Z"
        fill="#b1b2b6"/>
    <path
        id="path_8"
        d="M 13.672 72.897 C 12.752 72.897 12.006 73.643 12.006 74.564 C 12.006 75.485 12.752 76.23 13.672 76.23 C 14.592 76.23 15.338 75.484 15.338 74.564 C 15.338 73.644 14.592 72.897 13.672 72.897 Z"
        fill="#b1b2b6"/>
    <path
        id="path_9"
        d="M 37.427 53.492 L 35.462 59.44 L 32.938 59.44 L 39.362 40.53 L 42.309 40.53 L 48.762 59.44 L 46.151 59.44 L 44.132 53.492 Z M 43.627 51.584 L 41.776 46.143 C 41.353 44.907 41.075 43.786 40.794 42.691 L 40.737 42.691 C 40.456 43.813 40.148 44.964 39.784 46.113 L 37.931 51.584 L 43.626 51.584 Z"
        fill="#dd584d"/>
    <path
        id="path_10"
        d="M 51.546 40.784 C 53.033 40.56 54.801 40.391 56.736 40.391 C 60.245 40.391 62.741 41.204 64.395 42.748 C 66.079 44.29 67.061 46.478 67.061 49.537 C 67.061 52.623 66.106 55.147 64.34 56.886 C 62.572 58.654 59.655 59.609 55.979 59.609 C 54.238 59.609 52.781 59.524 51.545 59.383 L 51.545 40.784 Z M 53.988 57.505 C 54.605 57.617 55.503 57.644 56.457 57.644 C 61.674 57.644 64.507 54.727 64.507 49.621 C 64.537 45.16 62.01 42.325 56.85 42.325 C 55.587 42.325 54.632 42.439 53.988 42.579 Z"
        fill="#dd584d"/>
</svg>
