<svg
    xmlns="http://www.w3.org/2000/svg"
    viewBox="0 0 100 100"
    id="vector">
    <path
        id="path"
        d="M 27.214 61.383 L 35.539 61.383 L 35.539 84.702 L 27.214 84.702 Z"
        fill="#344d5b"/>
    <path
        id="path_1"
        d="M 23.578 58.549 L 23.578 60.442 C 23.578 61.072 24.089 61.583 24.718 61.583 L 38.033 61.583 C 38.663 61.583 39.173 61.072 39.173 60.442 L 39.173 58.549 Z"
        fill="#467082"/>
    <path
        id="path_2"
        d="M 64.461 61.383 L 72.786 61.383 L 72.786 84.702 L 64.461 84.702 Z"
        fill="#344d5b"/>
    <path
        id="path_3"
        d="M 60.825 58.549 L 60.825 60.442 C 60.825 61.072 61.336 61.583 61.965 61.583 L 75.28 61.583 C 75.91 61.583 76.42 61.072 76.42 60.442 L 76.42 58.549 Z"
        fill="#467082"/>
    <path
        id="path_4"
        d="M 78.533 84.382 L 58.348 84.382 C 57.916 84.382 57.566 84.732 57.566 85.164 L 57.566 87.234 C 57.566 87.666 57.916 88.016 58.348 88.016 L 78.533 88.016 C 78.965 88.016 79.315 87.666 79.315 87.234 L 79.315 85.164 C 79.315 84.732 78.965 84.382 78.533 84.382 Z"
        fill="#467082"/>
    <path
        id="path_5"
        d="M 41.469 84.382 L 21.284 84.382 C 20.852 84.382 20.502 84.732 20.502 85.164 L 20.502 87.234 C 20.502 87.666 20.852 88.016 21.284 88.016 L 41.469 88.016 C 41.901 88.016 42.251 87.666 42.251 87.234 L 42.251 85.164 C 42.251 84.732 41.901 84.382 41.469 84.382 Z"
        fill="#467082"/>
    <path
        id="path_6"
        d="M 81.477 11.984 L 18.523 11.984 C 16.636 11.984 15.106 13.514 15.106 15.401 L 15.106 55.333 C 15.106 57.22 16.636 58.75 18.523 58.75 L 81.477 58.75 C 83.364 58.75 84.894 57.22 84.894 55.333 L 84.894 15.401 C 84.894 13.514 83.364 11.984 81.477 11.984 Z"
        fill="#feda6f"/>
    <path
        id="path_7"
        d="M 33.517 16.318 L 19.538 30.297 L 19.538 54.416 L 80.461 54.416 L 80.461 16.318 Z"
        fill="#ededed"/>
    <path
        id="path_8"
        d="M 33.517 30.297 L 33.517 16.318 L 19.538 30.297 Z"
        fill="#4da0dc"/>
    <path
        id="path_9"
        d="M 33.517 30.297 L 19.549 44.265 L 19.538 30.297 Z"
        fill="#467082"
        fill-opacity="0.1"
        stroke-opacity="0.1"/>
    <path
        id="path_10"
        d="M 39.628 40.591 L 44.236 28.592 L 45.947 28.592 L 50.858 40.591 L 49.049 40.591 L 47.649 36.957 L 42.632 36.957 L 41.314 40.591 Z M 43.091 35.664 L 47.159 35.664 L 45.907 32.341 C 45.525 31.332 45.241 30.502 45.056 29.853 C 44.903 30.622 44.688 31.386 44.409 32.145 Z"
        fill="#dd584d"/>
    <path
        id="path_11"
        d="M 52.127 40.591 L 52.127 28.592 L 56.26 28.592 C 57.193 28.592 57.905 28.649 58.396 28.764 C 59.084 28.922 59.67 29.209 60.156 29.623 C 60.789 30.158 61.262 30.841 61.576 31.673 C 61.89 32.505 62.047 33.456 62.047 34.525 C 62.047 35.436 61.941 36.244 61.728 36.948 C 61.515 37.652 61.242 38.234 60.909 38.696 C 60.576 39.158 60.212 39.52 59.816 39.785 C 59.42 40.05 58.943 40.25 58.384 40.387 C 57.825 40.524 57.182 40.592 56.456 40.592 L 52.126 40.592 Z M 53.715 39.175 L 56.277 39.175 C 57.068 39.175 57.689 39.101 58.139 38.954 C 58.589 38.807 58.948 38.599 59.215 38.332 C 59.592 37.955 59.885 37.449 60.095 36.814 C 60.305 36.179 60.41 35.408 60.41 34.502 C 60.41 33.247 60.204 32.282 59.792 31.609 C 59.38 30.935 58.879 30.484 58.29 30.254 C 57.864 30.09 57.18 30.008 56.236 30.008 L 53.715 30.008 Z"
        fill="#dd584d"/>
</svg>
