<svg
    xmlns="http://www.w3.org/2000/svg"
    viewBox="0 0 512 512"
    id="vector">
    <path
        id="path"
        d="M 310.38 512 L 105.212 512 C 83.412 512 65.58 494.168 65.58 472.368 L 65.58 39.632 C 65.58 17.832 83.412 0 105.212 0 L 310.388 0 C 332.188 0 350.02 17.832 350.02 39.632 L 350.02 472.368 C 350.012 494.168 332.18 512 310.38 512 Z"
        fill="#333333"/>
    <path
        id="path_1"
        d="M 84.34 40.4 L 331.252 40.4 L 331.252 444.16 L 84.34 444.16 Z"
        fill="#000000"/>
    <path
        id="path_2"
        d="M 244.828 24.424 L 194.3 24.424 C 192.028 24.424 190.172 22.568 190.172 20.296 L 190.172 20.296 C 190.172 18.024 192.028 16.168 194.3 16.168 L 244.828 16.168 C 247.1 16.168 248.956 18.024 248.956 20.296 L 248.956 20.296 C 248.956 22.568 247.1 24.424 244.828 24.424 Z"
        fill="#cccccc"/>
    <path
        id="path_3"
        d="M 170.764 20.296 M 166.636 20.296 C 166.636 19.202 167.071 18.151 167.845 17.377 C 168.619 16.603 169.67 16.168 170.764 16.168 C 171.858 16.168 172.909 16.603 173.683 17.377 C 174.457 18.151 174.892 19.202 174.892 20.296 C 174.892 21.39 174.457 22.441 173.683 23.215 C 172.909 23.989 171.858 24.424 170.764 24.424 C 169.67 24.424 168.619 23.989 167.845 23.215 C 167.071 22.441 166.636 21.39 166.636 20.296"
        fill="#cccccc"/>
    <path
        id="path_4"
        d="M 207.796 497.568 C 197.028 497.568 188.276 488.808 188.276 478.048 C 188.276 467.288 197.036 458.528 207.796 458.528 C 218.556 458.528 227.316 467.288 227.316 478.048 C 227.316 488.808 218.564 497.568 207.796 497.568 Z M 207.796 462.52 C 199.236 462.52 192.276 469.48 192.276 478.04 C 192.276 486.6 199.236 493.56 207.796 493.56 C 216.356 493.56 223.316 486.6 223.316 478.04 C 223.316 469.48 216.356 462.52 207.796 462.52 Z"
        fill="#cccccc"/>
    <path
        id="path_5"
        d="M 128.284 310.024 L 388.716 310.024 L 446.42 174.504 L 128.284 174.504 L 128.284 310.024 Z"
        fill="#e21b1b"/>
    <path
        id="path_6"
        d="M 217.86 258.736 L 191.652 258.736 L 183.716 273.352 L 169.732 273.352 L 207.132 207.216 L 222.244 207.216 L 232.98 273.352 L 220.076 273.352 L 217.86 258.736 Z M 216.188 247.728 L 212.356 221.112 L 196.388 247.728 L 216.188 247.728 Z"
        fill="#ffffff"/>
    <path
        id="path_7"
        d="M 241.5 273.352 L 255.348 207.216 L 273.172 207.216 C 278.132 207.216 281.308 207.288 282.684 207.44 C 285.42 207.704 287.86 208.272 290.012 209.104 C 292.164 209.944 294.124 211.128 295.876 212.648 C 297.636 214.16 299.148 215.992 300.428 218.128 C 301.708 220.272 302.692 222.72 303.38 225.504 C 304.076 228.288 304.42 231.336 304.42 234.648 C 304.42 241.776 303.06 248.096 300.34 253.616 C 297.612 259.128 294.188 263.512 290.076 266.768 C 286.916 269.288 282.844 271.16 277.852 272.36 C 275.02 273.024 270.684 273.352 264.812 273.352 L 241.5 273.352 L 241.5 273.352 Z M 257.34 262.704 L 264.236 262.704 C 269.228 262.704 272.844 262.4 275.084 261.784 C 277.324 261.168 279.372 260.016 281.244 258.328 C 283.924 255.888 286.172 252.648 288.012 248.584 C 289.852 244.52 290.772 239.744 290.772 234.24 C 290.772 229.544 290.004 226.024 288.492 223.664 C 286.98 221.296 285.1 219.728 282.876 218.944 C 281.316 218.408 278.532 218.128 274.532 218.128 L 266.636 218.128 L 257.34 262.704 Z"
        fill="#ffffff"/>
    <path
        id="path_8"
        d="M 310.076 251.92 L 323.02 251.248 C 323.196 255.368 323.9 258.144 325.14 259.592 C 327.124 261.936 330.796 263.104 336.148 263.104 C 340.604 263.104 343.82 262.304 345.804 260.712 C 347.788 259.12 348.78 257.2 348.78 254.936 C 348.78 252.984 347.964 251.328 346.34 249.976 C 345.196 248.984 342.068 247.376 336.932 245.144 C 331.804 242.92 328.068 241.056 325.7 239.576 C 323.34 238.08 321.492 236.152 320.132 233.776 C 318.78 231.4 318.108 228.616 318.108 225.432 C 318.108 219.864 320.116 215.256 324.148 211.584 C 328.18 207.912 334.012 206.08 341.652 206.08 C 349.412 206.08 355.42 207.904 359.676 211.544 C 363.924 215.184 366.268 220.032 366.692 226.064 L 353.652 226.656 C 353.316 223.488 352.172 221.072 350.22 219.392 C 348.268 217.704 345.38 216.864 341.556 216.864 C 337.796 216.864 335.108 217.528 333.5 218.856 C 331.892 220.176 331.092 221.848 331.092 223.864 C 331.092 225.752 331.828 227.32 333.292 228.552 C 334.772 229.816 338.036 231.544 343.092 233.736 C 350.692 237.016 355.54 239.672 357.612 241.72 C 360.708 244.728 362.26 248.592 362.26 253.312 C 362.26 259.144 359.948 264.136 355.332 268.264 C 350.716 272.408 344.284 274.464 336.052 274.464 C 330.364 274.464 325.444 273.512 321.276 271.608 C 317.108 269.696 314.164 267.048 312.452 263.648 C 310.748 260.256 309.948 256.344 310.076 251.92 Z"
        fill="#ffffff"/>
    <path
        id="path_9"
        d="M 200.652 174.656 L 214.908 188.904 L 378.324 188.904 L 393.772 204.352 L 434.156 204.352 L 446.412 174.496 Z"
        fill="#ffffff"
        fill-opacity="0.35"
        stroke-opacity="0.35"/>
</svg>
