<svg
    xmlns="http://www.w3.org/2000/svg"
    viewBox="0 0 512 512"
    id="vector">
    <path
        id="path"
        d="M 300.23 403.28 L 285.77 484.63 C 284.5 491.78 278.27 497 271 497 L 211 497 C 201.74 497 194.68 488.67 196.2 479.53 L 209.25 401.22 C 213.736 402.295 208.811 402 296.49 402 C 297.92 402 298.883 402.606 300.23 403.28 Z"
        fill="#fdbf00"/>
    <path
        id="path_1"
        d="M 360 15 L 45 15 C 20.147 15 0 35.147 0 60 L 0 301 C 0 325.853 20.147 346 45 346 L 360 346 C 384.853 346 405 325.853 405 301 L 405 60 C 405 35.147 384.853 15 360 15 Z"
        fill="#f03800"/>
    <path
        id="path_2"
        d="M 405 180.5 L 405 301 C 405 325.85 384.85 346 360 346 L 45 346 C 20.15 346 0 325.85 0 301 L 0 180.5 Z"
        fill="#c61a00"/>
    <path
        id="path_3"
        d="M 269.208 167.084 L 149.208 107.084 C 139.258 102.108 127.5 109.352 127.5 120.501 L 127.5 240.501 C 127.5 251.64 139.256 258.895 149.208 253.918 L 269.208 193.918 C 280.241 188.401 280.25 172.605 269.208 167.084 Z"
        fill="#e0f4ff"/>
    <path
        id="path_4"
        d="M 277.49 180.5 C 277.49 185.83 274.73 191.16 269.21 193.92 L 149.21 253.92 C 139.26 258.89 127.5 251.64 127.5 240.5 L 127.5 180.5 Z"
        fill="#b8e0f5"/>
    <path
        id="path_5"
        d="M 216 287 C 196.701 287 181 302.701 181 322 L 181 372 C 181 391.299 196.701 407 216 407 L 296.542 407.026 C 300.449 403.121 302.638 400.932 306.545 397.026 L 306.545 296.974 C 302.638 293.068 300.449 290.879 296.542 286.974 Z"
        fill="#0097f0"/>
    <path
        id="path_6"
        d="M 306.55 347 L 306.55 397.03 C 302.64 400.93 300.45 403.12 296.55 407.02 L 296.55 407.03 L 296.54 407.03 L 216 407 C 196.7 407 181 391.3 181 372 L 181 347 Z"
        fill="#0052c2"/>
    <path
        id="path_7"
        d="M 487.008 300.742 L 503.008 293.742 C 510.598 290.422 514.059 281.577 510.738 273.988 C 507.418 266.399 498.573 262.936 490.984 266.258 L 474.984 273.258 C 467.394 276.578 463.933 285.423 467.254 293.012 C 470.577 300.607 479.426 304.061 487.008 300.742 Z"
        fill="#0097f0"/>
    <path
        id="path_8"
        d="M 503.008 400.258 L 487.008 393.258 C 479.419 389.936 470.574 393.398 467.254 400.988 C 463.933 408.578 467.394 417.422 474.984 420.742 L 490.984 427.742 C 498.573 431.063 507.419 427.601 510.738 420.012 C 514.059 412.422 510.598 403.578 503.008 400.258 Z"
        fill="#0052c2"/>
    <path
        id="path_9"
        d="M 496.996 332 L 480.996 332 C 472.712 332 465.996 338.716 465.996 347 C 465.996 355.284 472.712 362 480.996 362 L 496.996 362 C 505.28 362 511.996 355.284 511.996 347 C 511.996 338.716 505.28 332 496.996 332 Z"
        fill="#0097f0"/>
    <path
        id="path_10"
        d="M 512 347 C 512 355.28 505.28 362 497 362 L 481 362 C 472.71 362 466 355.28 466 347 Z"
        fill="#0052c2"/>
    <path
        id="path_11"
        d="M 414.336 228.562 L 296.545 286.97 L 296.545 407.03 L 414.336 465.439 C 424.27 470.365 436 463.133 436 452 L 436 242 C 436 230.876 424.287 223.626 414.336 228.562 Z"
        fill="#ffda2d"/>
    <path
        id="path_12"
        d="M 436 347 L 436 452 C 436 463.13 424.27 470.37 414.34 465.44 L 296.55 407.03 L 296.55 347 Z"
        fill="#fdbf00"/>
</svg>
