<svg
    xmlns="http://www.w3.org/2000/svg"
    viewBox="0 0 512 512"
    id="vector">
    <path
        id="path"
        d="M 245 262.5 M 0 262.5 C 0 197.547 25.83 135.188 71.759 89.259 C 117.688 43.33 180.047 17.5 245 17.5 C 309.953 17.5 372.312 43.33 418.241 89.259 C 464.17 135.188 490 197.547 490 262.5 C 490 327.453 464.17 389.812 418.241 435.741 C 372.312 481.67 309.953 507.5 245 507.5 C 180.047 507.5 117.688 481.67 71.759 435.741 C 25.83 389.812 0 327.453 0 262.5"
        fill="#91e0e8"/>
    <path
        id="path_1"
        d="M 57 159.831 L 22.503 159.831 C 8.068 191.061 0 225.836 0 262.5 C 0 266.853 0.118 271.181 0.342 275.478 L 57 275.478 L 57 159.831 Z"
        fill="#445ea0"/>
    <path
        id="path_2"
        d="M 415.377 338.75 L 393.881 338.75 L 393.881 419.623 L 415.377 419.623 C 420.877 419.623 425.377 415.123 425.377 409.623 L 425.377 348.75 C 425.377 343.25 420.877 338.75 415.377 338.75 Z"
        fill="#293d7c"/>
    <path
        id="path_3"
        d="M 281.707 334.99 L 281.707 423.383 L 364.44 472.746 L 364.44 285.626 Z"
        fill="#eef6ff"/>
    <path
        id="path_4"
        d="M 394.881 488.565 C 394.881 491.315 392.631 493.565 389.881 493.565 L 368.441 493.565 C 365.691 493.565 363.441 491.315 363.441 488.565 L 363.441 269.807 C 363.441 267.057 365.691 264.807 368.441 264.807 L 389.881 264.807 C 392.631 264.807 394.881 267.057 394.881 269.807 L 394.881 488.565 Z"
        fill="#fe3745"/>
    <path
        id="path_5"
        d="M 380.616 488.565 L 380.616 269.807 C 380.616 267.057 382.866 264.807 385.616 264.807 L 368.44 264.807 C 365.69 264.807 363.44 267.057 363.44 269.807 L 363.44 488.566 C 363.44 491.316 365.69 493.566 368.44 493.566 L 385.616 493.566 C 382.866 493.565 380.616 491.315 380.616 488.565 Z"
        fill="#b7092b"/>
    <path
        id="path_6"
        d="M 190.918 342.151 L 167.737 342.151 C 164.987 342.151 162.737 344.401 162.737 347.151 L 162.737 411.219 C 162.737 413.969 164.987 416.219 167.737 416.219 L 190.918 416.219 L 190.918 342.151 Z"
        fill="#eef6ff"/>
    <path
        id="path_7"
        d="M 177.247 411.22 L 177.247 347.152 C 177.247 344.402 179.497 342.152 182.247 342.152 L 167.737 342.152 C 164.987 342.152 162.737 344.402 162.737 347.152 L 162.737 411.22 C 162.737 413.97 164.987 416.22 167.737 416.22 L 182.247 416.22 C 179.497 416.22 177.247 413.97 177.247 411.22 Z"
        fill="#d9eafc"/>
    <path
        id="path_8"
        d="M 282.707 423.863 C 282.707 426.613 280.457 428.863 277.707 428.863 L 194.918 428.863 C 192.168 428.863 189.918 426.613 189.918 423.863 L 189.918 334.506 C 189.918 331.756 192.168 329.506 194.918 329.506 L 277.707 329.506 C 280.457 329.506 282.707 331.756 282.707 334.506 L 282.707 423.863 Z"
        fill="#fe3745"/>
    <path
        id="path_9"
        d="M 209.761 423.863 L 209.761 334.506 C 209.761 331.756 212.011 329.506 214.761 329.506 L 194.918 329.506 C 192.168 329.506 189.918 331.756 189.918 334.506 L 189.918 423.863 C 189.918 426.613 192.168 428.863 194.918 428.863 L 214.761 428.863 C 212.011 428.863 209.761 426.613 209.761 423.863 Z"
        fill="#b7092b"/>
    <path
        id="path_10"
        d="M 484.526 85.141 C 484.526 82.391 482.276 80.141 479.526 80.141 L 343.075 80.141 C 340.325 80.141 338.075 82.391 338.075 85.141 L 338.075 180.097 C 338.075 182.847 340.325 185.097 343.075 185.097 L 384.264 185.097 C 387.014 185.097 390.611 186.899 392.258 189.102 L 408.306 210.57 C 409.952 212.773 412.648 212.773 414.294 210.57 L 430.342 189.102 C 431.989 186.899 435.586 185.097 438.336 185.097 L 479.525 185.097 C 482.275 185.097 484.525 182.847 484.525 180.097 L 484.525 85.141 L 484.526 85.141 Z"
        fill="#52bbef"/>
    <path
        id="path_11"
        d="M 357.918 180.097 L 357.918 85.141 C 357.918 82.391 360.168 80.141 362.918 80.141 L 343.075 80.141 C 340.325 80.141 338.075 82.391 338.075 85.141 L 338.075 180.097 C 338.075 182.847 340.325 185.097 343.075 185.097 L 362.918 185.097 C 360.168 185.097 357.918 182.847 357.918 180.097 Z"
        fill="#1e99d6"/>
    <path
        id="path_12"
        d="M 454.143 117.24 L 368.459 117.24 C 364.316 117.24 360.959 113.883 360.959 109.74 C 360.959 105.598 364.316 102.24 368.459 102.24 L 454.143 102.24 C 458.286 102.24 461.643 105.598 461.643 109.74 C 461.643 113.883 458.285 117.24 454.143 117.24 Z"
        fill="#ffffff"/>
    <path
        id="path_13"
        d="M 454.143 140.492 L 368.459 140.492 C 364.316 140.492 360.959 137.135 360.959 132.992 C 360.959 128.849 364.316 125.492 368.459 125.492 L 454.143 125.492 C 458.286 125.492 461.643 128.849 461.643 132.992 C 461.643 137.135 458.285 140.492 454.143 140.492 Z"
        fill="#ffffff"/>
    <path
        id="path_14"
        d="M 411.472 163.743 L 368.459 163.743 C 364.316 163.743 360.959 160.386 360.959 156.243 C 360.959 152.1 364.316 148.743 368.459 148.743 L 411.472 148.743 C 415.615 148.743 418.972 152.1 418.972 156.243 C 418.972 160.386 415.614 163.743 411.472 163.743 Z"
        fill="#ffffff"/>
    <path
        id="path_15"
        d="M 268.01 60.11 M 212.404 60.11 C 212.404 48.369 216.123 36.924 223.024 27.426 C 229.925 17.927 239.66 10.854 250.827 7.226 C 261.993 3.597 274.027 3.597 285.193 7.226 C 296.36 10.854 306.095 17.927 312.996 27.426 C 319.897 36.924 323.616 48.369 323.616 60.11 C 323.616 71.851 319.897 83.296 312.996 92.794 C 306.095 102.293 296.36 109.366 285.193 112.994 C 274.027 116.623 261.993 116.623 250.827 112.994 C 239.66 109.366 229.925 102.293 223.024 92.794 C 216.123 83.296 212.404 71.851 212.404 60.11"
        fill="#fe3745"/>
    <path
        id="path_16"
        d="M 232.243 60.106 C 232.243 32.784 251.954 10.081 277.928 5.4 C 274.706 4.819 271.395 4.5 268.006 4.5 C 237.296 4.5 212.401 29.396 212.401 60.106 C 212.401 90.816 237.296 115.711 268.006 115.711 C 271.395 115.711 274.706 115.392 277.928 114.811 C 251.954 110.131 232.243 87.428 232.243 60.106 Z"
        fill="#b7092b"/>
    <path
        id="path_17"
        d="M 267.907 90.716 C 267.005 90.716 266.156 90.362 265.515 89.718 L 239.248 63.23 C 236.08 60.035 234.336 55.783 234.336 51.257 C 234.336 46.733 236.08 42.48 239.248 39.286 C 242.418 36.087 246.636 34.327 251.121 34.327 C 255.605 34.327 259.82 36.087 262.994 39.286 L 268.003 44.337 L 273.016 39.286 C 276.185 36.087 280.401 34.327 284.887 34.327 C 289.375 34.327 293.589 36.087 296.761 39.286 C 299.932 42.482 301.677 46.735 301.677 51.257 C 301.677 55.779 299.932 60.029 296.759 63.23 L 270.287 89.726 C 269.651 90.364 268.805 90.716 267.907 90.716 Z"
        fill="#ffffff"/>
    <path
        id="path_18"
        d="M 77.172 368.426 C 76.41 368.426 75.694 368.126 75.153 367.583 L 52.981 345.226 C 50.307 342.529 48.835 338.94 48.835 335.12 C 48.835 331.302 50.308 327.712 52.981 325.015 C 55.657 322.315 59.216 320.83 63.002 320.83 C 66.787 320.83 70.345 322.315 73.024 325.015 L 77.252 329.279 L 81.483 325.015 C 84.158 322.315 87.716 320.83 91.504 320.83 C 95.292 320.83 98.849 322.315 101.526 325.015 C 104.203 327.713 105.676 331.303 105.676 335.12 C 105.676 338.937 104.203 342.525 101.525 345.226 L 79.18 367.591 C 78.645 368.129 77.93 368.426 77.172 368.426 Z"
        fill="#fe3745"/>
    <path
        id="path_19"
        d="M 64.158 340.56 C 61.484 337.863 60.011 334.274 60.011 330.453 C 60.011 326.868 61.324 323.495 63.695 320.863 C 63.465 320.851 63.236 320.829 63.003 320.829 C 59.217 320.829 55.657 322.314 52.982 325.014 C 50.308 327.71 48.836 331.3 48.836 335.119 C 48.836 338.939 50.309 342.528 52.982 345.225 L 75.154 367.582 C 75.695 368.125 76.411 368.425 77.173 368.425 C 77.931 368.425 78.646 368.128 79.182 367.59 L 85.096 361.67 L 64.158 340.56 Z"
        fill="#b7092b"/>
    <path
        id="path_20"
        d="M 186.172 282.236 L 186.172 268.433 C 186.172 260.713 192.452 254.433 200.172 254.433 L 203.408 254.433 C 203.961 254.433 204.408 253.986 204.408 253.433 C 204.408 252.88 203.961 252.433 203.408 252.433 C 195.688 252.433 189.408 246.153 189.408 238.433 L 189.408 224.63 C 189.408 216.91 195.688 210.63 203.408 210.63 C 203.961 210.63 204.408 210.183 204.408 209.63 C 204.408 209.077 203.961 208.63 203.408 208.63 C 195.688 208.63 189.408 202.35 189.408 194.63 L 189.408 180.825 C 189.408 173.105 195.688 166.825 203.408 166.825 C 203.961 166.825 204.408 166.378 204.408 165.825 C 204.408 165.272 203.961 164.825 203.408 164.825 L 197.229 164.825 C 189.509 164.825 183.229 158.545 183.229 150.825 L 183.229 137.02 C 183.229 130.162 188.189 124.452 194.708 123.259 L 194.708 69.52 C 194.708 61.27 187.958 54.52 179.708 54.52 L 156.377 54.521 C 148.127 54.521 140.466 61.209 139.351 69.383 L 129.953 138.341 C 128.842 146.484 122.961 153.149 116.862 153.198 L 116.862 283.201 L 186.22 283.201 C 186.199 282.881 186.172 282.563 186.172 282.236 Z"
        fill="#ffe2b8"/>
    <path
        id="path_21"
        d="M 179.709 54.52 L 156.378 54.521 C 148.128 54.521 140.467 61.209 139.352 69.383 L 129.954 138.341 C 128.843 146.484 122.962 153.149 116.863 153.198 L 116.863 173.047 C 127.603 173.046 136.51 173.046 136.636 173.046 C 142.759 173.046 148.681 166.358 149.796 158.184 L 159.194 89.226 C 160.309 81.052 167.97 74.364 176.22 74.364 L 194.708 74.363 L 194.708 69.52 C 194.709 61.27 187.959 54.52 179.709 54.52 Z"
        fill="#ffc987"/>
    <path
        id="path_22"
        d="M 200.172 297.236 C 191.922 297.236 185.172 290.486 185.172 282.236 L 185.172 268.433 C 185.172 260.183 191.922 253.433 200.172 253.433 L 281.522 253.433 C 289.772 253.433 296.522 260.183 296.522 268.433 L 296.522 282.236 C 296.522 290.486 289.772 297.236 281.522 297.236 L 200.172 297.236 Z"
        fill="#ffe2b8"/>
    <path
        id="path_23"
        d="M 61 299.478 C 58.25 299.478 56 297.228 56 294.478 L 56 140.83 C 56 138.08 58.25 135.83 61 135.83 L 112.862 135.83 C 115.612 135.83 117.862 138.08 117.862 140.83 L 117.862 294.477 C 117.862 297.227 115.612 299.477 112.862 299.477 L 61 299.477 L 61 299.478 Z"
        fill="#293d7c"/>
    <path
        id="path_24"
        d="M 75.843 294.478 L 75.843 140.83 C 75.843 138.08 78.093 135.83 80.843 135.83 L 61 135.83 C 58.25 135.83 56 138.08 56 140.83 L 56 294.477 C 56 297.227 58.25 299.477 61 299.477 L 80.843 299.477 C 78.093 299.478 75.843 297.228 75.843 294.478 Z"
        fill="#1a2b63"/>
    <path
        id="path_25"
        d="M 86.93 160.32 M 73.544 160.32 C 73.544 156.771 74.955 153.364 77.465 150.855 C 79.974 148.345 83.381 146.934 86.93 146.934 C 90.479 146.934 93.886 148.345 96.395 150.855 C 98.905 153.364 100.316 156.771 100.316 160.32 C 100.316 163.869 98.905 167.276 96.395 169.785 C 93.886 172.295 90.479 173.706 86.93 173.706 C 83.381 173.706 79.974 172.295 77.465 169.785 C 74.955 167.276 73.544 163.869 73.544 160.32"
        fill="#aec1ed"/>
    <path
        id="path_26"
        d="M 197.23 165.826 C 188.98 165.826 182.23 159.076 182.23 150.826 L 182.23 137.021 C 182.23 128.771 188.98 122.021 197.23 122.021 L 281.522 122.021 C 289.772 122.021 296.522 128.771 296.522 137.021 L 296.522 150.826 C 296.522 159.076 289.772 165.826 281.522 165.826 L 197.23 165.826 L 197.23 165.826 Z"
        fill="#ffe2b8"/>
    <path
        id="path_27"
        d="M 203.408 209.631 C 195.158 209.631 188.408 202.881 188.408 194.631 L 188.408 180.826 C 188.408 172.576 195.158 165.826 203.408 165.826 L 285.173 165.826 C 293.423 165.826 300.173 172.576 300.173 180.826 L 300.173 194.631 C 300.173 202.881 293.423 209.631 285.173 209.631 L 203.408 209.631 L 203.408 209.631 Z"
        fill="#ffe2b8"/>
    <path
        id="path_28"
        d="M 203.408 253.434 C 195.158 253.434 188.408 246.684 188.408 238.434 L 188.408 224.631 C 188.408 216.381 195.158 209.631 203.408 209.631 L 285.173 209.631 C 293.423 209.631 300.173 216.381 300.173 224.631 L 300.173 238.434 C 300.173 246.684 293.423 253.434 285.173 253.434 L 203.408 253.434 Z"
        fill="#ffe2b8"/>
    <path
        id="path_29"
        d="M 215.613 281.795 C 207.363 281.795 200.613 275.045 200.613 266.795 L 200.613 253.434 L 200.172 253.434 C 191.922 253.434 185.172 260.184 185.172 268.434 L 185.172 282.237 C 185.172 290.487 191.922 297.237 200.172 297.237 L 281.522 297.237 C 289.772 297.237 296.522 290.487 296.522 282.237 L 296.522 281.796 L 215.613 281.796 L 215.613 281.795 Z"
        fill="#ffc987"/>
    <path
        id="path_30"
        d="M 212.671 150.385 C 204.421 150.385 197.671 143.635 197.671 135.385 L 197.671 122.022 L 197.23 122.022 C 188.98 122.022 182.23 128.772 182.23 137.022 L 182.23 150.827 C 182.23 159.077 188.98 165.827 197.23 165.827 L 281.522 165.827 C 289.772 165.827 296.522 159.077 296.522 150.827 L 296.522 150.386 L 212.671 150.386 L 212.671 150.385 Z"
        fill="#ffc987"/>
    <path
        id="path_31"
        d="M 218.85 194.189 C 210.6 194.189 203.85 187.439 203.85 179.189 L 203.85 165.826 L 203.409 165.826 C 195.159 165.826 188.409 172.576 188.409 180.826 L 188.409 194.631 C 188.409 202.881 195.159 209.631 203.409 209.631 L 285.174 209.631 C 293.424 209.631 300.174 202.881 300.174 194.631 L 300.174 194.19 L 218.85 194.189 L 218.85 194.189 Z"
        fill="#ffc987"/>
    <path
        id="path_32"
        d="M 218.85 237.992 C 210.6 237.992 203.85 231.242 203.85 222.992 L 203.85 209.631 L 203.409 209.631 C 195.159 209.631 188.409 216.381 188.409 224.631 L 188.409 238.434 C 188.409 246.684 195.159 253.434 203.409 253.434 L 285.174 253.434 C 293.424 253.434 300.174 246.684 300.174 238.434 L 300.174 237.993 L 218.85 237.993 L 218.85 237.992 Z"
        fill="#ffc987"/>
    <path
        id="path_33"
        d="M 121.984 389.646 L 32.527 389.646 C 31.433 389.646 30.539 390.544 30.539 391.643 L 30.539 449.043 C 30.539 450.142 31.433 451.04 32.527 451.04 L 121.984 451.04 C 123.078 451.04 123.972 450.142 123.972 449.043 L 123.972 391.643 C 123.973 390.544 123.078 389.646 121.984 389.646 Z"
        fill="#ffaf10"/>
    <path
        id="path_34"
        d="M 50.382 449.043 L 50.382 405.324 L 31.019 390.359 C 31.109 390.252 31.209 390.156 31.319 390.07 C 30.848 390.436 30.54 391.002 30.54 391.642 L 30.54 449.042 C 30.54 450.141 31.434 451.039 32.528 451.039 L 52.37 451.039 C 51.276 451.04 50.382 450.142 50.382 449.043 Z"
        fill="#ef9614"/>
    <path
        id="path_35"
        d="M 121.984 389.646 L 32.527 389.646 C 31.922 389.646 31.383 389.927 31.018 390.36 L 75.68 424.878 C 76.547 425.548 77.965 425.548 78.831 424.878 L 123.492 390.36 C 123.128 389.927 122.59 389.646 121.984 389.646 Z"
        fill="#ffd00d"/>
    <path
        id="path_36"
        d="M 510.012 232.153 L 420.555 232.153 C 419.461 232.153 418.567 233.051 418.567 234.15 L 418.567 291.55 C 418.567 292.649 419.462 293.547 420.555 293.547 L 510.012 293.547 C 511.106 293.547 512 292.649 512 291.55 L 512 234.15 C 512 233.052 511.105 232.153 510.012 232.153 Z"
        fill="#ffaf10"/>
    <path
        id="path_37"
        d="M 438.409 291.551 L 438.409 247.832 L 419.046 232.867 C 419.136 232.76 419.236 232.664 419.346 232.578 C 418.875 232.944 418.567 233.51 418.567 234.15 L 418.567 291.55 C 418.567 292.649 419.462 293.547 420.555 293.547 L 440.398 293.547 C 439.304 293.548 438.409 292.649 438.409 291.551 Z"
        fill="#ef9614"/>
    <path
        id="path_38"
        d="M 510.012 232.153 L 420.555 232.153 C 419.95 232.153 419.411 232.434 419.046 232.867 L 463.708 267.385 C 464.575 268.055 465.993 268.055 466.859 267.385 L 511.52 232.867 C 511.155 232.435 510.617 232.153 510.012 232.153 Z"
        fill="#ffd00d"/>
</svg>
